<?xml version="1.0" standalone="no"?>
<!DOCTYPE svg PUBLIC "-//W3C//DTD SVG 20010904//EN"
 "http://www.w3.org/TR/2001/REC-SVG-20010904/DTD/svg10.dtd">
<svg version="1.0" xmlns="http://www.w3.org/2000/svg"
 width="3464.000000pt" height="3464.000000pt" viewBox="0 0 3464.000000 3464.000000"
 preserveAspectRatio="xMidYMid meet">

<g transform="translate(0.000000,3464.000000) scale(0.100000,-0.100000)"
fill="#000000" stroke="none">
<path d="M5011 19440 c-87 -18 -182 -94 -223 -180 -32 -65 -31 -176 1 -248 51
-113 176 -187 306 -180 267 14 393 331 206 518 -79 79 -184 111 -290 90z"/>
<path d="M25213 19440 c-101 -20 -198 -103 -234 -199 -55 -146 12 -303 163
-383 36 -19 59 -23 133 -23 75 0 98 4 137 24 137 70 206 221 165 362 -31 106
-127 195 -235 218 -59 12 -69 12 -129 1z"/>
<path d="M8426 19138 c-3 -24 -15 -171 -26 -328 -11 -157 -23 -309 -26 -337
l-6 -53 -214 0 -214 0 0 -185 c0 -181 0 -185 21 -185 34 0 310 -20 357 -26
l42 -5 0 -617 c0 -654 4 -724 49 -855 72 -209 217 -346 426 -403 80 -22 334
-30 451 -15 122 16 362 78 386 100 7 6 -84 406 -94 417 -4 3 -41 -6 -85 -19
-299 -94 -500 -43 -568 144 -18 51 -20 89 -23 651 l-3 598 303 2 303 3 32 175
c17 96 32 185 32 198 l1 22 -335 0 -335 0 0 380 0 380 -234 0 -235 0 -5 -42z"/>
<path d="M16990 17669 l0 -1511 618 5 c493 4 639 8 727 21 546 79 869 319
1059 785 71 176 105 367 113 637 7 239 -4 378 -43 554 -58 261 -161 464 -322
632 -170 178 -369 281 -667 344 -178 38 -295 44 -897 44 l-588 0 0 -1511z
m1241 1007 c387 -70 596 -295 665 -714 22 -134 22 -423 -1 -562 -31 -191 -88
-335 -181 -459 -91 -122 -232 -208 -422 -258 -93 -25 -112 -26 -419 -31 l-323
-4 0 1019 c0 561 3 1023 8 1028 13 14 579 -2 673 -19z"/>
<path d="M3140 18460 c-113 -14 -162 -29 -265 -80 -129 -63 -233 -151 -307
-263 -14 -21 -28 -35 -31 -30 -2 4 -15 81 -28 171 l-23 162 -218 0 -218 0 0
-1615 0 -1615 270 0 270 0 0 515 c0 283 2 515 5 515 4 0 18 -6 33 -14 45 -23
182 -64 256 -77 90 -15 357 -6 456 16 290 65 512 237 649 505 97 190 130 336
138 612 9 295 -26 501 -116 694 -97 207 -236 351 -422 438 -119 56 -309 84
-449 66z m143 -493 c66 -33 146 -111 187 -182 105 -184 132 -551 59 -784 -68
-215 -235 -376 -426 -412 -134 -26 -333 12 -454 85 l-54 32 -3 450 -2 449 47
85 c30 52 75 111 118 155 111 113 220 156 381 152 75 -2 100 -7 147 -30z"/>
<path d="M6855 18460 c-361 -32 -599 -161 -774 -418 -110 -163 -174 -372 -189
-622 -15 -239 12 -484 70 -645 128 -354 347 -548 713 -630 93 -21 427 -31 560
-16 169 18 495 113 495 144 0 10 -130 420 -135 425 -2 2 -31 -9 -66 -23 -91
-37 -230 -73 -329 -85 -306 -37 -506 30 -627 213 -92 138 -130 310 -120 547
20 501 290 715 800 634 56 -9 155 -33 221 -54 66 -22 121 -38 122 -37 4 5 134
416 134 424 0 12 -153 68 -255 94 -174 44 -443 65 -620 49z"/>
<path d="M13757 18459 c-84 -11 -175 -41 -247 -82 -71 -39 -216 -184 -268
-266 -47 -75 -41 -86 -78 142 l-27 167 -219 0 -218 0 0 -1130 0 -1130 270 0
270 0 0 614 0 614 25 88 c47 164 143 336 227 408 108 92 200 121 358 113 58
-3 130 -13 160 -21 30 -8 55 -14 57 -12 2 1 26 94 53 207 28 112 53 211 56
220 6 21 -107 55 -231 69 -100 11 -93 11 -188 -1z"/>
<path d="M15297 18459 c-504 -49 -839 -396 -907 -942 -16 -127 -7 -454 15
-551 53 -235 150 -422 291 -558 146 -141 285 -212 519 -265 66 -15 123 -18
320 -18 258 1 334 11 535 71 86 26 268 99 284 114 12 12 -122 410 -139 410 -7
0 -37 -11 -67 -24 -75 -33 -204 -71 -313 -93 -126 -24 -385 -24 -475 0 -247
66 -384 234 -416 510 l-7 57 724 0 725 0 16 28 c36 60 -13 463 -78 644 -136
377 -391 582 -772 618 -118 11 -129 11 -255 -1z m307 -459 c152 -47 266 -222
278 -425 l3 -50 -470 0 -470 0 3 30 c24 221 163 398 353 449 82 22 224 20 303
-4z"/>
<path d="M20864 18459 c-270 -26 -515 -149 -666 -336 -117 -145 -180 -282
-226 -498 -22 -105 -26 -145 -26 -320 -1 -156 3 -222 18 -300 47 -252 139
-439 294 -593 131 -132 277 -211 484 -260 107 -25 126 -27 358 -26 230 0 253
2 368 27 130 30 281 79 392 128 l68 31 -70 208 -69 209 -79 -34 c-89 -38 -186
-67 -310 -92 -122 -24 -391 -24 -480 1 -212 58 -335 184 -389 397 -11 41 -21
95 -22 120 l-4 44 722 3 721 2 17 27 c16 23 17 43 11 154 -19 378 -127 676
-314 866 -73 74 -131 114 -235 163 -102 48 -173 66 -306 79 -113 12 -137 12
-257 0z m284 -453 c110 -30 188 -98 242 -211 30 -65 60 -183 60 -239 l0 -36
-470 0 c-450 0 -470 1 -470 18 0 35 39 171 65 225 76 162 234 256 430 256 50
1 114 -6 143 -13z"/>
<path d="M26835 18463 c-362 -33 -618 -206 -711 -480 -22 -64 -27 -97 -27
-183 -1 -123 13 -189 59 -285 41 -87 107 -162 196 -225 82 -58 158 -90 423
-182 290 -100 391 -154 426 -232 55 -121 -16 -242 -167 -281 -165 -43 -483 5
-784 118 l-90 34 -71 -219 c-40 -120 -70 -220 -68 -222 11 -10 284 -99 367
-120 208 -53 274 -60 517 -61 187 0 246 4 315 19 250 54 412 169 505 359 44
91 65 192 65 314 0 177 -47 292 -170 413 -109 108 -232 167 -555 269 -156 48
-298 116 -342 162 -62 65 -77 134 -44 204 23 51 53 78 116 106 41 19 72 24
180 27 160 5 288 -17 477 -82 l129 -44 10 26 c6 15 41 106 80 202 38 97 69
179 69 183 0 23 -233 105 -401 141 -175 38 -359 52 -504 39z"/>
<path d="M29066 18459 c-194 -19 -394 -98 -536 -212 -126 -102 -246 -279 -303
-447 -57 -167 -71 -267 -71 -505 0 -191 3 -234 22 -322 107 -494 403 -771 901
-843 135 -20 447 -7 597 24 126 27 279 76 394 127 l68 31 -70 208 -69 208 -72
-29 c-200 -83 -355 -113 -572 -113 -152 1 -179 3 -252 26 -233 71 -348 224
-387 516 l-6 42 724 0 724 0 17 27 c16 23 17 42 11 152 -17 309 -89 558 -214
742 -149 221 -355 339 -641 368 -114 12 -136 12 -265 0z m307 -459 c156 -48
261 -202 283 -414 l7 -66 -472 0 -471 0 0 23 c0 43 31 151 61 214 58 122 180
223 305 252 74 17 217 13 287 -9z"/>
<path d="M31780 18460 c-207 -27 -378 -139 -507 -332 -29 -43 -54 -75 -56 -70
-2 4 -17 87 -33 185 l-28 177 -218 0 -218 0 0 -1130 0 -1130 268 2 267 3 5
635 c5 572 7 640 23 688 76 225 182 381 308 455 112 66 313 75 479 22 16 -5
24 21 69 202 28 114 51 216 51 225 0 43 -264 86 -410 68z"/>
<path d="M4430 18235 c0 -168 2 -185 17 -185 32 0 298 -21 331 -26 l32 -5 0
-929 0 -930 270 0 270 0 0 1130 0 1130 -460 0 -460 0 0 -185z"/>
<path d="M10070 17658 c0 -840 2 -877 60 -1051 80 -238 234 -392 460 -457 56
-17 113 -23 221 -27 214 -8 333 19 490 111 79 47 175 135 231 212 17 24 34 44
38 44 3 0 12 -42 19 -92 6 -51 17 -126 23 -165 l10 -73 219 0 219 0 0 1130 0
1130 -270 0 -270 0 0 -711 0 -712 -42 -79 c-90 -169 -195 -265 -341 -312 -75
-25 -97 -28 -179 -24 -141 7 -228 57 -286 166 -66 124 -65 109 -69 930 l-4
742 -265 0 -264 0 0 -762z"/>
<path d="M22231 18318 c22 -57 216 -564 432 -1128 l393 -1025 273 0 274 0 423
1105 c234 608 427 1115 430 1128 l6 22 -265 0 -265 0 -60 -172 c-32 -95 -164
-480 -292 -856 -133 -389 -237 -678 -241 -670 -4 7 -139 392 -300 856 l-292
842 -278 0 -277 0 39 -102z"/>
<path d="M24630 18235 c0 -168 2 -185 17 -185 32 0 298 -21 331 -26 l32 -5 0
-929 0 -930 270 0 270 0 0 1130 0 1130 -460 0 -460 0 0 -185z"/>
</g>
</svg>
